<?xml version="1.0" encoding="UTF-8"?>
<svg xmlns="http://www.w3.org/2000/svg" viewBox="0 0 500 500" width="500" height="500">
<path d="M491.86 138.36C491.86 157.23 491.86 176.1 491.86 194.98C489.33 207.83 485.64 220.41 482.82 233.21C476.16 263.54 469.19 293.95 461.15 323.98C457.84 336.35 455.32 349.02 452.08 361.43C450.81 366.32 450.52 373.21 447.48 377.38C444.68 381.23 439.01 382.69 435.03 385.04C425.38 390.72 415.12 395.41 405.33 401C387.37 411.24 369.33 421.55 351.1 431.26C332.2 441.34 314.2 453.08 295.3 463.1C284.72 468.71 274.18 474.89 263.89 481.04C259.49 483.67 254.35 487.85 249.09 487.82C243.67 487.8 239.19 483.69 234.76 481.03C224.79 475.03 214.87 468.64 204.7 463.1C190.94 455.6 177.2 447.46 164.01 438.97C146.77 427.88 128.31 418.58 110.49 408.44C105.18 405.43 100.01 402.07 94.57 399.29C84.66 394.21 75.22 388.5 65.45 383.17C61.15 380.82 55.01 378.64 52.13 374.58C49.33 370.64 49.09 364.2 47.93 359.61C44.76 347.13 42.01 334.58 38.93 322.12C32.32 295.42 25.85 268.72 19.9 241.91C16.46 226.41 11.58 211.09 9.01 195.43C9.01 175.8 9.01 156.16 9.01 136.53C10.26 129.69 21.05 120.71 26.02 115.73C40.57 101.13 54.15 85.46 68.9 70.94C83.67 56.39 97.49 40.74 111.98 25.92C116.47 21.32 124.23 11.03 129.59 8.39C133.92 6.25 140.72 7.55 145.43 7.55C157.59 7.53 169.74 7.54 181.9 7.54C225.6 7.52 269.31 7.65 313.01 7.52C326.6 7.47 340.18 7.5 353.76 7.53C358.59 7.55 366.52 6.12 370.95 8.27C376.4 10.91 382.89 19.55 387.05 24.15C399.07 37.44 411.98 50.14 424.17 63.27C440.53 80.89 458.02 98.03 474.41 115.76C479.77 121.55 491.17 130.4 491.86 138.36ZM347.33 37.19C329.27 38.76 310.65 37.73 292.47 37.74C261.57 37.75 230.67 37.85 199.77 37.73C186.68 37.68 173.59 37.79 160.5 37.72C156.21 37.69 148.64 36.22 145.01 38.83C142.81 40.4 141.24 42.69 139.35 44.58C131.49 52.42 124.22 60.84 116.26 68.55C99.2 85.07 83.12 103.45 66.42 120.54C60.33 126.77 54.73 133.51 48.45 139.53C45.39 142.47 39.13 147.07 38.26 151.37C36.84 158.44 41.15 169.59 42.73 176.61C46.99 195.63 50.96 214.76 55.78 233.57C57.12 238.8 57.62 244.28 58.9 249.53C64.75 273.53 69.35 297.95 75.57 321.87C77.54 329.45 78.91 337.4 80.67 345.06C81.33 347.91 81.32 351.3 82.93 353.82C84.9 356.88 90.57 358.72 93.65 360.48C103.83 366.3 114.2 372.18 124.23 378.3C153.23 395.99 183.26 412.01 212.37 429.43C220.73 434.42 229.41 439.09 237.74 444.19C240.83 446.08 244.68 449.26 248.25 450.1C250.32 450.59 253.51 448.33 255.25 447.28C260.1 444.35 265.01 441.43 269.92 438.64C289.43 427.54 308.96 416.06 328.67 405.2C350 393.45 371.5 381.83 392.57 369.52C397.8 366.46 403.17 363.12 408.59 360.44C411.48 359 415.32 357.74 417.39 355.07C419.4 352.46 421.5 340.36 422.18 336.62C424.01 326.42 427.22 316.37 429.26 306.18C430.48 300.06 432.51 294.09 433.99 288.08C435 283.95 435.41 279.6 436.37 275.47C437.8 269.4 439.65 263.38 441.02 257.28C445.43 237.59 449.37 217.59 454.41 197.96C457.04 187.77 459.17 177.45 461.44 167.18C462.46 162.57 464.41 157.1 463.37 152.33C462.61 148.89 454.8 142.05 452.03 139.51C448.22 136.01 444.81 131.71 441.3 127.88C437.46 123.7 433.06 119.93 429.37 115.61C411.56 94.78 390.96 76.34 372.54 56.01C369.31 52.44 357.76 39.29 354.39 37.64C352.5 36.71 349.38 37.01 347.33 37.19ZM323.22 137.53C323.23 147.85 323.23 158.17 323.23 168.49C321.71 174.18 318.87 178.24 315.99 183.36C311.29 191.75 306.41 200.04 301.99 208.58C289.93 231.85 279.94 256.24 273 281.51C269.95 292.6 267.67 304.08 265.96 315.44C265.54 318.26 265.4 326.97 263.55 328.61C260.96 330.9 253.7 329.49 250.46 329.49C241.02 329.49 231.58 329.49 222.15 329.48C218.58 329.48 213.08 330.55 209.73 329.35C206.24 328.11 208.01 323.01 208.22 320.32C208.93 311.28 211.79 302.33 213.2 293.38C214.08 287.78 216.14 281.89 217.88 276.49C220.04 269.83 221.81 263.06 224.33 256.49C229.81 242.19 236.71 228.65 243.57 215.01C247.73 206.72 252.96 199.11 257.42 190.99C259.06 188.01 262.66 184.96 262.86 181.51C236.88 181.2 210.9 180.9 184.92 180.59C183.28 177.44 184.19 173.08 184.2 169.63C184.21 162.03 184.2 154.41 184.2 146.8C184.2 144.05 182.9 138.13 185.19 136.09C187.11 134.38 191.43 135.27 193.84 135.27C201.45 135.27 209.06 135.27 216.67 135.27C241.93 135.25 267.2 135.27 292.47 135.26C299.47 135.26 306.47 135.23 313.47 135.26C316.12 135.26 319.96 134.56 322.32 135.84C322.62 136.41 322.92 136.97 323.22 137.53Z" fill="#0505f5" fill-rule="evenodd" stroke="#0505f5" stroke-width="0.25" stroke-linejoin="round"/>
<path d="M9.01 136.53C9.01 156.16 9.01 175.8 9.01 195.43C9.01 175.8 9.01 156.16 9.01 136.53ZM323.22 137.53C323.23 147.85 323.23 158.17 323.23 168.49C323.23 158.17 323.23 147.85 323.22 137.53ZM491.86 138.36C491.86 157.23 491.86 176.1 491.86 194.98C491.86 176.1 491.86 157.23 491.86 138.36Z" fill="#ffffff" fill-rule="evenodd" stroke="#ffffff" stroke-width="0.25" stroke-linejoin="round"/>
</svg>